<svg xmlns="http://www.w3.org/2000/svg" xmlns:xlink="http://www.w3.org/1999/xlink" width="269.9921875" height="48.5361328125" viewBox="0 0 269.9921875 48.5361328125" fill="none"><g ><g filter="url(#filter_94_802)"><path     fill="#FFFFFF"  d="M19.516 35.0679L14.296 24.9879L10.3 24.9879L10.3 35.0679L4.00002 35.0679L4.00002 6.08794L14.08 6.08794Q17.644 6.08794 20.2 7.23994Q22.756 8.39194 24.106 10.5159Q25.456 12.6399 25.456 15.5199Q25.456 18.3999 24.178 20.5239Q22.9 22.6479 20.488 23.7999L26.896 35.0679L19.516 35.0679ZM10.3 11.8119L10.3 19.2279L13.18 19.2279Q15.988 19.2279 17.5 18.2739Q19.012 17.3199 19.012 15.5199Q19.012 13.7199 17.5 12.7659Q15.988 11.8119 13.18 11.8119L10.3 11.8119ZM48.064 13.5759L48.064 35.0679L41.98 35.0679L41.98 32.3319L41.764 32.3319Q40.864 33.8799 39.37 34.7259Q37.876 35.5719 35.896 35.5719Q32.692 35.5719 30.874 33.5019Q29.056 31.4319 29.056 27.7239L29.056 13.5759L35.14 13.5759L35.14 26.3199Q35.14 27.9399 36.004 28.9119Q36.868 29.8839 38.272 29.8839Q39.964 29.8839 40.972 28.8219Q41.98 27.7599 41.98 25.9599L41.98 13.5759L48.064 13.5759ZM52.24 35.0679L52.24 13.5759L58.324 13.5759L58.324 16.3839L58.504 16.3839Q59.44 14.8359 60.97 13.9539Q62.5 13.0719 64.48 13.0719Q67.684 13.0719 69.466 15.1419Q71.248 17.2119 71.248 21.0279L71.248 35.0679L65.164 35.0679L65.164 22.4319Q65.164 20.7759 64.336 19.8219Q63.508 18.8679 62.068 18.8679Q60.376 18.8679 59.35 19.9299Q58.324 20.9919 58.324 22.8279L58.324 35.0679L52.24 35.0679ZM75.208 35.0679L75.208 13.5759L81.292 13.5759L81.292 16.3839L81.472 16.3839Q82.408 14.8359 83.938 13.9539Q85.468 13.0719 87.448 13.0719Q90.652 13.0719 92.434 15.1419Q94.216 17.2119 94.216 21.0279L94.216 35.0679L88.132 35.0679L88.132 22.4319Q88.132 20.7759 87.304 19.8219Q86.476 18.8679 85.036 18.8679Q83.344 18.8679 82.318 19.9299Q81.292 20.9919 81.292 22.8279L81.292 35.0679L75.208 35.0679ZM105.196 7.56394Q105.196 9.21994 104.206 10.1919Q103.216 11.1639 101.56 11.1639Q99.94 11.1639 98.986 10.1919Q98.032 9.21994 98.032 7.56394Q98.032 5.94394 98.986 4.97194Q99.94 3.99994 101.56 3.99994Q103.216 3.99994 104.206 4.97194Q105.196 5.94394 105.196 7.56394ZM104.656 13.5759L104.656 35.0679L98.572 35.0679L98.572 13.5759L104.656 13.5759ZM109.228 35.0679L109.228 13.5759L115.312 13.5759L115.312 16.3839L115.492 16.3839Q116.428 14.8359 117.958 13.9539Q119.488 13.0719 121.468 13.0719Q124.672 13.0719 126.454 15.1419Q128.236 17.2119 128.236 21.0279L128.236 35.0679L122.152 35.0679L122.152 22.4319Q122.152 20.7759 121.324 19.8219Q120.496 18.8679 119.056 18.8679Q117.364 18.8679 116.338 19.9299Q115.312 20.9919 115.312 22.8279L115.312 35.0679L109.228 35.0679ZM141.772 44.5359Q138.136 44.5359 135.544 42.9519Q132.952 41.3679 131.836 38.6319L137.02 36.4359Q137.668 37.8399 138.856 38.6139Q140.044 39.3879 141.556 39.3879Q143.5 39.3879 144.598 38.1999Q145.696 37.0119 145.696 34.9599L145.696 32.1879L145.48 32.1879Q144.688 33.6279 143.284 34.4379Q141.88 35.2479 140.26 35.2479Q137.56 35.2479 135.544 33.8619Q133.528 32.4759 132.43 29.9199Q131.332 27.3639 131.332 23.9439Q131.332 20.6319 132.394 18.1839Q133.456 15.7359 135.4 14.4039Q137.344 13.0719 139.936 13.0719Q141.664 13.0719 143.122 13.8639Q144.58 14.6559 145.48 16.1319L145.696 16.1319L145.696 13.5759L151.816 13.5759L151.816 33.9879Q151.816 37.1919 150.628 39.5679Q149.44 41.9439 147.172 43.2399Q144.904 44.5359 141.772 44.5359ZM141.772 29.5239Q143.644 29.5239 144.742 28.0659Q145.84 26.6079 145.84 24.1599Q145.84 21.7119 144.706 20.2539Q143.572 18.7959 141.628 18.7959Q139.792 18.7959 138.676 20.2539Q137.56 21.7119 137.56 24.1599Q137.56 26.6079 138.712 28.0659Q139.864 29.5239 141.772 29.5239ZM171.276 35.0679L165.192 35.0679L165.192 6.08794L170.808 6.08794L180.024 20.0919L180.24 20.0919L189.456 6.08794L195.072 6.08794L195.072 35.0679L188.952 35.0679L188.952 17.8239L188.736 17.8239L182.472 27.1119L177.792 27.1119L171.492 17.9679L171.276 17.9679L171.276 35.0679ZM209.04 35.5719Q205.872 35.5719 203.532 34.2039Q201.192 32.8359 199.932 30.2799Q198.672 27.7239 198.672 24.3039Q198.672 20.8839 199.932 18.3459Q201.192 15.8079 203.532 14.4399Q205.872 13.0719 209.04 13.0719Q212.208 13.0719 214.548 14.4399Q216.888 15.8079 218.148 18.3459Q219.408 20.8839 219.408 24.3039Q219.408 27.7239 218.148 30.2799Q216.888 32.8359 214.548 34.2039Q212.208 35.5719 209.04 35.5719ZM209.04 29.8119Q210.948 29.8119 212.064 28.3359Q213.18 26.8599 213.18 24.3039Q213.18 21.7839 212.064 20.3079Q210.948 18.8319 209.04 18.8319Q207.132 18.8319 206.016 20.3079Q204.9 21.7839 204.9 24.3039Q204.9 26.8599 206.016 28.3359Q207.132 29.8119 209.04 29.8119ZM242.34 35.0679L236.22 35.0679L236.22 32.5119L236.004 32.5119Q235.14 33.9519 233.79 34.7619Q232.44 35.5719 230.784 35.5719Q228.084 35.5719 226.068 34.1679Q224.052 32.7639 222.954 30.1719Q221.856 27.5799 221.856 24.1239Q221.856 20.7759 222.918 18.2739Q223.98 15.7719 225.924 14.4219Q227.868 13.0719 230.46 13.0719Q232.296 13.0719 233.7 13.8639Q235.104 14.6559 236.004 16.1319L236.22 16.1319L236.22 6.08794L242.34 6.08794L242.34 35.0679ZM236.364 24.3399Q236.364 21.7839 235.23 20.2899Q234.096 18.7959 232.152 18.7959Q230.316 18.7959 229.2 20.2899Q228.084 21.7839 228.084 24.3399Q228.084 26.8599 229.236 28.3539Q230.388 29.8479 232.296 29.8479Q234.168 29.8479 235.266 28.3539Q236.364 26.8599 236.364 24.3399ZM265.992 22.7919Q265.992 25.0599 265.524 26.6799L252.06 26.6799Q252.744 30.5679 256.452 30.5679Q257.748 30.5679 258.792 29.8119Q259.836 29.0559 260.448 27.7239L265.452 29.8839Q264.372 32.5839 262.014 34.0779Q259.656 35.5719 256.416 35.5719Q253.176 35.5719 250.728 34.2219Q248.28 32.8719 246.966 30.3699Q245.652 27.8679 245.652 24.5199Q245.652 21.0279 246.948 18.4539Q248.244 15.8799 250.602 14.4759Q252.96 13.0719 256.128 13.0719Q259.08 13.0719 261.312 14.2599Q263.544 15.4479 264.768 17.6439Q265.992 19.8399 265.992 22.7919ZM259.8 21.6759Q259.8 20.0559 258.81 19.0479Q257.82 18.0399 256.128 18.0399Q253.032 18.0399 252.168 21.6759L259.8 21.6759Z"></path></g></g><defs><filter id="filter_94_802" x="0" y="0" width="269.9921875" height="48.5361328125" filterUnits="userSpaceOnUse" color-interpolation-filters="sRGB"><feFlood flood-opacity="0" result="feFloodId_94_802"/><feColorMatrix in="SourceAlpha" type="matrix" values="0 0 0 0 0 0 0 0 0 0 0 0 0 0 0 0 0 0 127 0" result="hardAlpha_94_802"/><feOffset dx="0" dy="0"/><feGaussianBlur stdDeviation="2"/><feComposite in2="hardAlpha_94_802" operator="out"/><feColorMatrix type="matrix" values="0 0 0 0 1 0 0 0 0 1 0 0 0 0 1 0 0 0 0.54 0"/><feBlend mode="normal" in2="feFloodId_94_802" result="dropShadow_1_94_802"/><feBlend mode="normal" in="SourceGraphic" in2="dropShadow_1_94_802" result="shape_94_802"/></filter></defs></svg>