<svg xmlns="http://www.w3.org/2000/svg" xmlns:xlink="http://www.w3.org/1999/xlink" width="281.692138671875" height="48.5361328125" viewBox="0 0 281.692138671875 48.5361328125" fill="none"><g ><g filter="url(#filter_94_748)"><path     fill="#FFFFFF"  d="M28.48 28.5879Q26.896 31.9359 24.034 33.7539Q21.172 35.5719 17.464 35.5719Q13.54 35.5719 10.48 33.6459Q7.42002 31.7199 5.71002 28.2819Q4.00002 24.8439 4.00002 20.4519Q4.00002 16.1319 5.72802 12.7479Q7.45602 9.36394 10.588 7.47394Q13.72 5.58393 17.788 5.58393Q21.532 5.58393 24.196 7.43793Q26.86 9.29193 28.408 12.5679L22.828 15.0519Q22.072 13.2879 20.668 12.3879Q19.264 11.4879 17.428 11.4879Q15.412 11.4879 13.828 12.6219Q12.244 13.7559 11.362 15.8079Q10.48 17.8599 10.48 20.4519Q10.48 23.1159 11.362 25.2219Q12.244 27.3279 13.828 28.4979Q15.412 29.6679 17.428 29.6679Q19.156 29.6679 20.542 28.7499Q21.928 27.8319 22.9 26.1039L28.48 28.5879ZM31.756 6.08794L37.84 6.08794L37.84 28.0479Q37.84 29.3439 39.136 29.3439L40.18 29.3439L40.18 35.1039L37.192 35.1039Q34.564 35.1039 33.16 33.8079Q31.756 32.5119 31.756 30.0639L31.756 6.08794ZM62.176 22.7919Q62.176 25.0599 61.708 26.6799L48.244 26.6799Q48.928 30.5679 52.636 30.5679Q53.932 30.5679 54.976 29.8119Q56.02 29.0559 56.632 27.7239L61.636 29.8839Q60.556 32.5839 58.198 34.0779Q55.84 35.5719 52.6 35.5719Q49.36 35.5719 46.912 34.2219Q44.464 32.8719 43.15 30.3699Q41.836 27.8679 41.836 24.5199Q41.836 21.0279 43.132 18.4539Q44.428 15.8799 46.786 14.4759Q49.144 13.0719 52.312 13.0719Q55.264 13.0719 57.496 14.2599Q59.728 15.4479 60.952 17.6439Q62.176 19.8399 62.176 22.7919ZM55.984 21.6759Q55.984 20.0559 54.994 19.0479Q54.004 18.0399 52.312 18.0399Q49.216 18.0399 48.352 21.6759L55.984 21.6759ZM71.176 35.5719Q68.332 35.5719 66.478 33.9339Q64.624 32.2959 64.624 29.4159Q64.624 27.1839 65.884 25.4919Q67.144 23.7999 69.466 22.8819Q71.788 21.9639 74.884 21.9639L76.828 21.9639L76.828 21.4239Q76.828 19.8399 75.946 18.9939Q75.064 18.1479 73.48 18.1479Q71.212 18.1479 69.376 20.3799L65.416 17.3559Q68.908 13.0719 74.272 13.0719Q76.828 13.0719 78.808 14.0979Q80.788 15.1239 81.868 16.9599Q82.948 18.7959 82.948 21.2079L82.948 35.0679L76.828 35.0679L76.828 32.6199L76.612 32.6199Q75.964 34.0599 74.524 34.8159Q73.084 35.5719 71.176 35.5719ZM73.084 30.5679Q74.704 30.5679 75.766 29.8299Q76.828 29.0919 76.828 27.7959L76.828 26.9319L75.496 26.9319Q73.156 26.9319 72.004 27.3999Q70.852 27.8679 70.852 28.9839Q70.852 29.6679 71.446 30.1179Q72.04 30.5679 73.084 30.5679ZM86.908 35.0679L86.908 13.5759L92.992 13.5759L92.992 16.3839L93.172 16.3839Q94.108 14.8359 95.638 13.9539Q97.168 13.0719 99.148 13.0719Q102.352 13.0719 104.134 15.1419Q105.916 17.2119 105.916 21.0279L105.916 35.0679L99.832 35.0679L99.832 22.4319Q99.832 20.7759 99.004 19.8219Q98.176 18.8679 96.736 18.8679Q95.044 18.8679 94.018 19.9299Q92.992 20.9919 92.992 22.8279L92.992 35.0679L86.908 35.0679ZM116.896 7.56394Q116.896 9.21994 115.906 10.1919Q114.916 11.1639 113.26 11.1639Q111.64 11.1639 110.686 10.1919Q109.732 9.21994 109.732 7.56394Q109.732 5.94394 110.686 4.97194Q111.64 3.99994 113.26 3.99994Q114.916 3.99994 115.906 4.97194Q116.896 5.94394 116.896 7.56394ZM116.356 13.5759L116.356 35.0679L110.272 35.0679L110.272 13.5759L116.356 13.5759ZM120.928 35.0679L120.928 13.5759L127.012 13.5759L127.012 16.3839L127.192 16.3839Q128.128 14.8359 129.658 13.9539Q131.188 13.0719 133.168 13.0719Q136.372 13.0719 138.154 15.1419Q139.936 17.2119 139.936 21.0279L139.936 35.0679L133.852 35.0679L133.852 22.4319Q133.852 20.7759 133.024 19.8219Q132.196 18.8679 130.756 18.8679Q129.064 18.8679 128.038 19.9299Q127.012 20.9919 127.012 22.8279L127.012 35.0679L120.928 35.0679ZM153.472 44.5359Q149.836 44.5359 147.244 42.9519Q144.652 41.3679 143.536 38.6319L148.72 36.4359Q149.368 37.8399 150.556 38.6139Q151.744 39.3879 153.256 39.3879Q155.2 39.3879 156.298 38.1999Q157.396 37.0119 157.396 34.9599L157.396 32.1879L157.18 32.1879Q156.388 33.6279 154.984 34.4379Q153.58 35.2479 151.96 35.2479Q149.26 35.2479 147.244 33.8619Q145.228 32.4759 144.13 29.9199Q143.032 27.3639 143.032 23.9439Q143.032 20.6319 144.094 18.1839Q145.156 15.7359 147.1 14.4039Q149.044 13.0719 151.636 13.0719Q153.364 13.0719 154.822 13.8639Q156.28 14.6559 157.18 16.1319L157.396 16.1319L157.396 13.5759L163.516 13.5759L163.516 33.9879Q163.516 37.1919 162.328 39.5679Q161.14 41.9439 158.872 43.2399Q156.604 44.5359 153.472 44.5359ZM153.472 29.5239Q155.344 29.5239 156.442 28.0659Q157.54 26.6079 157.54 24.1599Q157.54 21.7119 156.406 20.2539Q155.272 18.7959 153.328 18.7959Q151.492 18.7959 150.376 20.2539Q149.26 21.7119 149.26 24.1599Q149.26 26.6079 150.412 28.0659Q151.564 29.5239 153.472 29.5239ZM182.976 35.0679L176.892 35.0679L176.892 6.08794L182.508 6.08794L191.724 20.0919L191.94 20.0919L201.156 6.08794L206.772 6.08794L206.772 35.0679L200.652 35.0679L200.652 17.8239L200.436 17.8239L194.172 27.1119L189.492 27.1119L183.192 17.9679L182.976 17.9679L182.976 35.0679ZM220.74 35.5719Q217.572 35.5719 215.232 34.2039Q212.892 32.8359 211.632 30.2799Q210.372 27.7239 210.372 24.3039Q210.372 20.8839 211.632 18.3459Q212.892 15.8079 215.232 14.4399Q217.572 13.0719 220.74 13.0719Q223.908 13.0719 226.248 14.4399Q228.588 15.8079 229.848 18.3459Q231.108 20.8839 231.108 24.3039Q231.108 27.7239 229.848 30.2799Q228.588 32.8359 226.248 34.2039Q223.908 35.5719 220.74 35.5719ZM220.74 29.8119Q222.648 29.8119 223.764 28.3359Q224.88 26.8599 224.88 24.3039Q224.88 21.7839 223.764 20.3079Q222.648 18.8319 220.74 18.8319Q218.832 18.8319 217.716 20.3079Q216.6 21.7839 216.6 24.3039Q216.6 26.8599 217.716 28.3359Q218.832 29.8119 220.74 29.8119ZM254.04 35.0679L247.92 35.0679L247.92 32.5119L247.704 32.5119Q246.84 33.9519 245.49 34.7619Q244.14 35.5719 242.484 35.5719Q239.784 35.5719 237.768 34.1679Q235.752 32.7639 234.654 30.1719Q233.556 27.5799 233.556 24.1239Q233.556 20.7759 234.618 18.2739Q235.68 15.7719 237.624 14.4219Q239.568 13.0719 242.16 13.0719Q243.996 13.0719 245.4 13.8639Q246.804 14.6559 247.704 16.1319L247.92 16.1319L247.92 6.08794L254.04 6.08794L254.04 35.0679ZM248.064 24.3399Q248.064 21.7839 246.93 20.2899Q245.796 18.7959 243.852 18.7959Q242.016 18.7959 240.9 20.2899Q239.784 21.7839 239.784 24.3399Q239.784 26.8599 240.936 28.3539Q242.088 29.8479 243.996 29.8479Q245.868 29.8479 246.966 28.3539Q248.064 26.8599 248.064 24.3399ZM277.692 22.7919Q277.692 25.0599 277.224 26.6799L263.76 26.6799Q264.444 30.5679 268.152 30.5679Q269.448 30.5679 270.492 29.8119Q271.536 29.0559 272.148 27.7239L277.152 29.8839Q276.072 32.5839 273.714 34.0779Q271.356 35.5719 268.116 35.5719Q264.876 35.5719 262.428 34.2219Q259.98 32.8719 258.666 30.3699Q257.352 27.8679 257.352 24.5199Q257.352 21.0279 258.648 18.4539Q259.944 15.8799 262.302 14.4759Q264.66 13.0719 267.828 13.0719Q270.78 13.0719 273.012 14.2599Q275.244 15.4479 276.468 17.6439Q277.692 19.8399 277.692 22.7919ZM271.5 21.6759Q271.5 20.0559 270.51 19.0479Q269.52 18.0399 267.828 18.0399Q264.732 18.0399 263.868 21.6759L271.5 21.6759Z"></path></g></g><defs><filter id="filter_94_748" x="0" y="0" width="281.692138671875" height="48.5361328125" filterUnits="userSpaceOnUse" color-interpolation-filters="sRGB"><feFlood flood-opacity="0" result="feFloodId_94_748"/><feColorMatrix in="SourceAlpha" type="matrix" values="0 0 0 0 0 0 0 0 0 0 0 0 0 0 0 0 0 0 127 0" result="hardAlpha_94_748"/><feOffset dx="0" dy="0"/><feGaussianBlur stdDeviation="2"/><feComposite in2="hardAlpha_94_748" operator="out"/><feColorMatrix type="matrix" values="0 0 0 0 1 0 0 0 0 1 0 0 0 0 1 0 0 0 0.54 0"/><feBlend mode="normal" in2="feFloodId_94_748" result="dropShadow_1_94_748"/><feBlend mode="normal" in="SourceGraphic" in2="dropShadow_1_94_748" result="shape_94_748"/></filter></defs></svg>