<svg xmlns="http://www.w3.org/2000/svg" xmlns:xlink="http://www.w3.org/1999/xlink" width="274.4201202392578" height="39.572265625" viewBox="0 0 274.4201202392578 39.572265625" fill="none"><g ><g filter="url(#filter_94_1109)"><path     fill="#FFFFFF"  d="M28.48 28.5879Q26.896 31.9359 24.034 33.7539Q21.172 35.5719 17.464 35.5719Q13.54 35.5719 10.48 33.6459Q7.42 31.7199 5.71 28.2819Q4 24.8439 4 20.4519Q4 16.1319 5.728 12.7479Q7.456 9.36394 10.588 7.47394Q13.72 5.58393 17.788 5.58393Q21.532 5.58393 24.196 7.43793Q26.86 9.29193 28.408 12.5679L22.828 15.0519Q22.072 13.2879 20.668 12.3879Q19.264 11.4879 17.428 11.4879Q15.412 11.4879 13.828 12.6219Q12.244 13.7559 11.362 15.8079Q10.48 17.8599 10.48 20.4519Q10.48 23.1159 11.362 25.2219Q12.244 27.3279 13.828 28.4979Q15.412 29.6679 17.428 29.6679Q19.156 29.6679 20.542 28.7499Q21.928 27.8319 22.9 26.1039L28.48 28.5879ZM41.26 35.5719Q38.092 35.5719 35.752 34.2039Q33.412 32.8359 32.152 30.2799Q30.892 27.7239 30.892 24.3039Q30.892 20.8839 32.152 18.3459Q33.412 15.8079 35.752 14.4399Q38.092 13.0719 41.26 13.0719Q44.428 13.0719 46.768 14.4399Q49.108 15.8079 50.368 18.3459Q51.628 20.8839 51.628 24.3039Q51.628 27.7239 50.368 30.2799Q49.108 32.8359 46.768 34.2039Q44.428 35.5719 41.26 35.5719ZM41.26 29.8119Q43.168 29.8119 44.284 28.3359Q45.4 26.8599 45.4 24.3039Q45.4 21.7839 44.284 20.3079Q43.168 18.8319 41.26 18.8319Q39.352 18.8319 38.236 20.3079Q37.12 21.7839 37.12 24.3039Q37.12 26.8599 38.236 28.3359Q39.352 29.8119 41.26 29.8119ZM54.94 6.08794L61.024 6.08794L61.024 28.0479Q61.024 29.3439 62.32 29.3439L63.364 29.3439L63.364 35.1039L60.376 35.1039Q57.748 35.1039 56.344 33.8079Q54.94 32.5119 54.94 30.0639L54.94 6.08794ZM75.388 35.5719Q72.22 35.5719 69.88 34.2039Q67.54 32.8359 66.28 30.2799Q65.02 27.7239 65.02 24.3039Q65.02 20.8839 66.28 18.3459Q67.54 15.8079 69.88 14.4399Q72.22 13.0719 75.388 13.0719Q78.556 13.0719 80.896 14.4399Q83.236 15.8079 84.496 18.3459Q85.756 20.8839 85.756 24.3039Q85.756 27.7239 84.496 30.2799Q83.236 32.8359 80.896 34.2039Q78.556 35.5719 75.388 35.5719ZM75.388 29.8119Q77.296 29.8119 78.412 28.3359Q79.528 26.8599 79.528 24.3039Q79.528 21.7839 78.412 20.3079Q77.296 18.8319 75.388 18.8319Q73.48 18.8319 72.364 20.3079Q71.248 21.7839 71.248 24.3039Q71.248 26.8599 72.364 28.3359Q73.48 29.8119 75.388 29.8119ZM89.392 35.0679L89.068 13.5759L95.476 13.5759L95.476 17.4639L95.692 17.4639Q97.96 13.0719 103.576 13.0719L103.792 13.0719L103.792 19.0119L103.468 19.0119Q99.256 19.0119 97.366 20.3979Q95.476 21.7839 95.476 24.5919L95.476 35.0679L89.392 35.0679ZM113.548 7.56394Q113.548 9.21994 112.558 10.1919Q111.568 11.1639 109.912 11.1639Q108.292 11.1639 107.338 10.1919Q106.384 9.21994 106.384 7.56394Q106.384 5.94394 107.338 4.97194Q108.292 3.99994 109.912 3.99994Q111.568 3.99994 112.558 4.97194Q113.548 5.94394 113.548 7.56394ZM113.008 13.5759L113.008 35.0679L106.924 35.0679L106.924 13.5759L113.008 13.5759ZM134.176 17.9319L125.068 29.3799L134.644 29.3799L134.644 35.1039L116.392 35.1039L116.392 30.7119L125.464 19.2999L116.644 19.2999L116.644 13.5759L134.176 13.5759L134.176 17.9319ZM157.108 22.7919Q157.108 25.0599 156.64 26.6799L143.176 26.6799Q143.86 30.5679 147.568 30.5679Q148.864 30.5679 149.908 29.8119Q150.952 29.0559 151.564 27.7239L156.568 29.8839Q155.488 32.5839 153.13 34.0779Q150.772 35.5719 147.532 35.5719Q144.292 35.5719 141.844 34.2219Q139.396 32.8719 138.082 30.3699Q136.768 27.8679 136.768 24.5199Q136.768 21.0279 138.064 18.4539Q139.36 15.8799 141.718 14.4759Q144.076 13.0719 147.244 13.0719Q150.196 13.0719 152.428 14.2599Q154.66 15.4479 155.884 17.6439Q157.108 19.8399 157.108 22.7919ZM150.916 21.6759Q150.916 20.0559 149.926 19.0479Q148.936 18.0399 147.244 18.0399Q144.148 18.0399 143.284 21.6759L150.916 21.6759ZM175.704 35.0679L169.62 35.0679L169.62 6.08794L175.236 6.08794L184.452 20.0919L184.668 20.0919L193.884 6.08794L199.5 6.08794L199.5 35.0679L193.38 35.0679L193.38 17.8239L193.164 17.8239L186.9 27.1119L182.22 27.1119L175.92 17.9679L175.704 17.9679L175.704 35.0679ZM213.468 35.5719Q210.3 35.5719 207.96 34.2039Q205.62 32.8359 204.36 30.2799Q203.1 27.7239 203.1 24.3039Q203.1 20.8839 204.36 18.3459Q205.62 15.8079 207.96 14.4399Q210.3 13.0719 213.468 13.0719Q216.636 13.0719 218.976 14.4399Q221.316 15.8079 222.576 18.3459Q223.836 20.8839 223.836 24.3039Q223.836 27.7239 222.576 30.2799Q221.316 32.8359 218.976 34.2039Q216.636 35.5719 213.468 35.5719ZM213.468 29.8119Q215.376 29.8119 216.492 28.3359Q217.608 26.8599 217.608 24.3039Q217.608 21.7839 216.492 20.3079Q215.376 18.8319 213.468 18.8319Q211.56 18.8319 210.444 20.3079Q209.328 21.7839 209.328 24.3039Q209.328 26.8599 210.444 28.3359Q211.56 29.8119 213.468 29.8119ZM246.768 35.0679L240.648 35.0679L240.648 32.5119L240.432 32.5119Q239.568 33.9519 238.218 34.7619Q236.868 35.5719 235.212 35.5719Q232.512 35.5719 230.496 34.1679Q228.48 32.7639 227.382 30.1719Q226.284 27.5799 226.284 24.1239Q226.284 20.7759 227.346 18.2739Q228.408 15.7719 230.352 14.4219Q232.296 13.0719 234.888 13.0719Q236.724 13.0719 238.128 13.8639Q239.532 14.6559 240.432 16.1319L240.648 16.1319L240.648 6.08794L246.768 6.08794L246.768 35.0679ZM240.792 24.3399Q240.792 21.7839 239.658 20.2899Q238.524 18.7959 236.58 18.7959Q234.744 18.7959 233.628 20.2899Q232.512 21.7839 232.512 24.3399Q232.512 26.8599 233.664 28.3539Q234.816 29.8479 236.724 29.8479Q238.596 29.8479 239.694 28.3539Q240.792 26.8599 240.792 24.3399ZM270.42 22.7919Q270.42 25.0599 269.952 26.6799L256.488 26.6799Q257.172 30.5679 260.88 30.5679Q262.176 30.5679 263.22 29.8119Q264.264 29.0559 264.876 27.7239L269.88 29.8839Q268.8 32.5839 266.442 34.0779Q264.084 35.5719 260.844 35.5719Q257.604 35.5719 255.156 34.2219Q252.708 32.8719 251.394 30.3699Q250.08 27.8679 250.08 24.5199Q250.08 21.0279 251.376 18.4539Q252.672 15.8799 255.03 14.4759Q257.388 13.0719 260.556 13.0719Q263.508 13.0719 265.74 14.2599Q267.972 15.4479 269.196 17.6439Q270.42 19.8399 270.42 22.7919ZM264.228 21.6759Q264.228 20.0559 263.238 19.0479Q262.248 18.0399 260.556 18.0399Q257.46 18.0399 256.596 21.6759L264.228 21.6759Z"></path></g></g><defs><filter id="filter_94_1109" x="0" y="0" width="274.4201202392578" height="39.572265625" filterUnits="userSpaceOnUse" color-interpolation-filters="sRGB"><feFlood flood-opacity="0" result="feFloodId_94_1109"/><feColorMatrix in="SourceAlpha" type="matrix" values="0 0 0 0 0 0 0 0 0 0 0 0 0 0 0 0 0 0 127 0" result="hardAlpha_94_1109"/><feOffset dx="0" dy="0"/><feGaussianBlur stdDeviation="2"/><feComposite in2="hardAlpha_94_1109" operator="out"/><feColorMatrix type="matrix" values="0 0 0 0 1 0 0 0 0 1 0 0 0 0 1 0 0 0 0.54 0"/><feBlend mode="normal" in2="feFloodId_94_1109" result="dropShadow_1_94_1109"/><feBlend mode="normal" in="SourceGraphic" in2="dropShadow_1_94_1109" result="shape_94_1109"/></filter></defs></svg>